# xmcd CD database file
#
# Track frame offsets:
#	150
#	11547
#	24377
#	35785
#	47472
#	59089
#	68255
#	78472
#	90460
#	101400
#	111435
#	123540
#
# Disc length: 1784 seconds
#
# Revision: 1
# Processed by: cddbd v1.5.2PL0 Copyright (c) Steve Scherf et al.
# Submitted via: CDex 1.51
#
DISCID=9506f60c
DTITLE=Kitty Wells - Country Stars and Stripes
DYEAR=2001
DGENRE=Country
TTITLE0=It Wasn't God Who Made Honky Tonk Angels
TTITLE1=Makin' Believe
TTITLE2=Heartbreak USA
TTITLE3=Left To Right
TTITLE4=Password
TTITLE5=I'll Repossess My Heart
TTITLE6=Release Me
TTITLE7=Amigo's Guitar
TTITLE8=Unloved Unwanted
TTITLE9=I Can't Stop Loving You
TTITLE10=We Missed You
TTITLE11=Love Makes The World Go Round
EXTD=YEAR: 2001
EXTT0=
EXTT1=
EXTT2=
EXTT3=
EXTT4=
EXTT5=
EXTT6=
EXTT7=
EXTT8=
EXTT9=
EXTT10=
EXTT11=
PLAYORDER=
